# xmcd
#
# Track frame offsets:
#	150
#	25606
#	47051
#	84607
#	108769
#	141155
#	171487
#	197864
#	213804
#
# Disc length: 3226 seconds
#
# Revision: 0
# Processed by: cddbd v1.5.1PL0 Copyright (c) Steve Scherf et al.
# Submitted via: audiograbber 1.83.01
#
DISCID=760c9809
DTITLE=The Savoy Truffle - Roadhouse Boogie
DYEAR=2004
DGENRE=Blues
TTITLE0=Out In The Rain
TTITLE1=Lowdown Blues
TTITLE2=Until You Can Feel It
TTITLE3=Chevrolet
TTITLE4=Don't Beat Around The Bush
TTITLE5=To Real To Feel
TTITLE6=I'll Never Know
TTITLE7=Bring You Down
TTITLE8=Give It One Good Try
EXTD=
EXTT0=
EXTT1=
EXTT2=
EXTT3=
EXTT4=
EXTT5=
EXTT6=
EXTT7=
EXTT8=
PLAYORDER=
